# xmcd
# Track frame offsets:
# 151
# 14003
# 32131
# 45461
# 55639
# 68139
# 78395
# 89471
# 107822
# 124748
# 142200
# 155067
# 169067
# 186296
# 200076
#
# Disc length: 2813 seconds
# Revision: 0
# Processed by: cddbd v1.5.2PL0 Copyright (c) Steve Scherf et al.
# Submitted via: VisiTrax 2.10.0.248 - For more info visit www.synapsa.com
#
DISCID=d80afb0f
DTITLE=Dan Schafer - Bring Him On
DYEAR=1900
DGENRE=
TTITLE0=My Heart Tells No Lies
TTITLE1=I Can't Wait
TTITLE2=Only You Baby
TTITLE3=It's Memories of You
TTITLE4=I'll Be
TTITLE5=Where Has All The Passion Gone
TTITLE6=If Ever You Just Walk Away
TTITLE7=American Invention
TTITLE8=Hearts To The Fire
TTITLE9=My Love Is Yours Always
TTITLE10=On This Side Of the Bar
TTITLE11=Original Love
TTITLE12=Prettly Girls and Rich Men
TTITLE13=Runnin' The Country
TTITLE14=Someone Before Me
EXTD=
EXTT0=
EXTT1=
EXTT2=
EXTT3=
EXTT4=
EXTT5=
EXTT6=
EXTT7=
EXTT8=
EXTT9=
EXTT10=
EXTT11=
EXTT12=
EXTT13=
EXTT14=
PLAYORDER=
